<svg width="121" height="154" viewBox="0 0 121 154" fill="none" xmlns="http://www.w3.org/2000/svg">
<path d="M120.678 88.4559V117.721H117.423V120.972H110.913V124.224H107.658V127.476H101.148V130.727H97.8931V133.979H91.3831V137.231H88.1281V140.482H81.618V143.734H78.363V146.986H71.853V150.237H68.598V153.489H55.578V150.237H52.323V146.986H45.813V143.734H42.558V140.482H36.048V137.231H32.793V133.979H26.283V130.727H23.028V127.476H16.5179V124.224H13.2629V120.972H6.75293V117.721H3.49793V114.469H0.24292V91.7076H3.49793V88.4559H6.75293V85.2043H10.0079V81.9526H13.2629V78.701H10.0079V75.4493H6.75293V16.9196H10.0079V13.668H13.2629V10.4163H19.773V7.16466H23.028V3.91301H29.538V0.661362H36.048V3.91301H42.558V7.16466H49.068V10.4163H55.578V7.16466H62.088V3.91301H68.598V7.16466H71.853V10.4163H78.363V13.668H81.618V16.9196H88.1281V20.1713H91.3831V23.4229H94.6381V26.6746H97.8931V29.9262H101.148V65.6944H97.8931V68.946H94.6381V72.1977H97.8931V75.4493H101.148V78.701H107.658V81.9526H110.913V85.2043H117.423V88.4559H120.678Z" fill="#7E7E7E"/>
<path d="M13.2631 78.701H19.7731V81.9526H23.0281V85.2043H29.5381V88.4559H32.7931V91.7076H39.3031V94.9592H42.5581V98.2109H49.0681V101.463H58.8331V42.9328H52.3231V39.6812H49.0681V36.4295H42.5581V33.1779H39.3031V29.9262H32.7931V26.6746H29.5381V23.4229H23.0281V20.1713H19.7731V16.9196H13.2631V13.668H10.0081V75.4493H13.2631V78.701ZM16.5181 29.9262V26.6746H23.0281V29.9262H26.2831V33.1779H32.7931V36.4295H36.0481V39.6812H42.5581V42.9328H45.8131V46.1845H52.3231V49.4361H55.5781V88.4559H52.3231V91.7076H45.8131V88.4559H42.5581V85.2043H36.0481V81.9526H32.7931V78.701H26.2831V75.4493H23.0281V72.1977H16.5181V68.946H13.2631V29.9262H16.5181ZM55.5781 124.224H52.3231V120.972H45.8131V117.721H42.5581V114.469H36.0481V111.217H32.7931V107.966H26.2831V104.714H23.0281V101.463H16.5181V98.2109H13.2631V94.9592H6.75305V88.4559H3.49805V114.469H6.75305V117.721H13.2631V120.972H16.5181V124.224H23.0281V127.476H26.2831V130.727H32.7931V133.979H36.0481V137.231H42.5581V140.482H45.8131V143.734H52.3231V146.986H55.5781V150.237H62.0881V127.476H55.5781V124.224ZM114.168 94.9592V98.2109H107.658V101.463H101.148V104.714H97.8932V107.966H91.3832V111.217H88.1282V114.469H81.6182V117.721H78.3632V120.972H71.8532V124.224H68.5982V127.476H65.3431V150.237H68.5982V146.986H71.8532V143.734H78.3632V140.482H81.6182V137.231H88.1282V133.979H91.3832V130.727H97.8932V127.476H101.148V124.224H107.658V120.972H110.913V117.721H117.423V94.9592H114.168ZM19.7731 10.4163H13.2631V13.668H19.7731V10.4163ZM23.0281 7.16467H19.7731V10.4163H23.0281V7.16467ZM29.5381 3.91302H23.0281V7.16467H29.5381V3.91302ZM36.0481 0.661366H29.5381V3.91302H36.0481V0.661366ZM10.0081 85.2043H6.75305V88.4559H10.0081V85.2043ZM13.2631 81.9526H10.0081V85.2043H13.2631V81.9526ZM91.3832 36.4295H84.8732V39.6812H91.3832V36.4295ZM97.8932 33.1779H91.3832V36.4295H97.8932V33.1779Z" fill="#C0C0C0"/>
<path d="M71.853 94.9592V91.7076H78.363V88.4559H81.618V81.9526H84.8731V75.4493H81.618V33.1779H78.363V36.4295H75.108V33.1779H78.363V29.9262H75.108V26.6746H68.598V23.4229H65.343V20.1713H58.833V16.9196H55.578V13.668H49.068V10.4163H42.558V7.16468H36.048V3.91302H29.538V7.16468H23.028V10.4163H19.773V13.668H13.2629V16.9196H19.773V20.1713H23.028V23.4229H29.538V26.6746H32.793V29.9262H39.303V33.1779H42.558V36.4295H49.068V39.6812H52.323V42.9328H58.833V99.0238H62.088V98.2109H65.343V94.9592H71.853ZM68.598 36.4295H71.853V39.6812H68.598V36.4295ZM62.088 42.9328V39.6812H65.343V42.9328H62.088ZM114.168 94.9592V91.7076H117.423V88.4559H110.913V85.2043H107.658V81.9526H101.148V78.701H97.8931V75.4493H88.1281V81.9526H84.8731V88.4559H81.618V91.7076H78.363V94.9592H71.853V98.2109H65.343V101.463H58.833V104.714H49.068V101.463H42.558V98.2109H39.303V94.9592H32.793V91.7076H29.538V88.4559H23.028V85.2043H19.773V81.9526H13.2629V85.2043H10.0079V88.4559H6.75293V94.9592H13.2629V98.2109H16.5179V101.463H23.028V104.714H26.283V107.966H32.793V111.217H36.048V114.469H42.558V117.721H45.813V120.972H52.323V124.224H55.578V127.476H62.088V150.237H68.598V146.986H65.343V143.734H68.598V140.482H65.343V137.231H68.598V133.979H65.343V130.727H68.598V127.476H65.343V124.224H68.598V120.972H71.853V117.721H78.363V114.469H81.618V111.217H88.1281V107.966H91.3831V104.714H97.8931V101.463H101.148V98.2109H107.658V94.9592H114.168ZM52.323 150.237H55.578V146.986H52.323V150.237ZM45.813 143.734V146.986H52.323V143.734H45.813ZM42.558 140.482V143.734H45.813V140.482H42.558ZM36.048 137.231V140.482H42.558V137.231H36.048ZM32.793 133.979V137.231H36.048V133.979H32.793ZM26.283 130.727V133.979H32.793V130.727H26.283ZM23.028 127.476V130.727H26.283V127.476H23.028ZM16.5179 124.224V127.476H23.028V124.224H16.5179ZM13.2629 120.972V124.224H16.5179V120.972H13.2629ZM6.75293 117.721V120.972H13.2629V117.721H6.75293ZM3.49793 114.469V117.721H6.75293V114.469H3.49793ZM0.24292 91.7076V114.469H3.49793V91.7076H0.24292ZM58.833 16.9196H65.343V20.1713H68.598V23.4229H75.108V26.6746H78.363V29.9262H81.618V33.1779H84.8731V36.4295H91.3831V33.1779H97.8931V29.9262H94.6381V26.6746H91.3831V23.4229H88.1281V20.1713H81.618V16.9196H78.363V13.668H71.853V10.4163H68.598V7.16468H62.088V10.4163H55.578V13.668H58.833V16.9196ZM84.8731 39.6812V75.4493H88.1281V72.1977H91.3831V68.946H94.6381V65.6944H97.8931V36.4295H91.3831V39.6812H84.8731ZM52.323 49.4361V46.1845H45.813V49.4361H52.323ZM45.813 46.1845V42.9328H42.558V46.1845H45.813ZM42.558 42.9328V39.6812H36.048V42.9328H42.558ZM36.048 39.6812V36.4295H32.793V39.6812H36.048ZM32.793 36.4295V33.1779H26.283V36.4295H32.793ZM26.283 33.1779V29.9262H23.028V33.1779H26.283ZM23.028 26.6746H16.5179V29.9262H23.028V26.6746ZM16.5179 29.9262H13.2629V68.946H16.5179V29.9262ZM10.0079 16.9196H6.75293V75.4493H10.0079V16.9196ZM117.423 98.2109H114.168V101.463H117.423V98.2109ZM117.423 107.966V104.714H114.168V107.966H117.423ZM117.423 114.469V111.217H114.168V114.469H117.423ZM114.168 104.714V101.463H110.913V104.714H114.168ZM110.913 111.217H114.168V107.966H110.913V111.217ZM110.913 117.721H114.168V114.469H110.913V117.721ZM110.913 101.463V98.2109H107.658V101.463H110.913ZM110.913 107.966V104.714H107.658V107.966H110.913ZM107.658 114.469H110.913V111.217H107.658V114.469ZM107.658 101.463H104.403V104.714H107.658V101.463ZM107.658 107.966H104.403V111.217H107.658V107.966ZM104.403 117.721H107.658V114.469H104.403V117.721ZM104.403 104.714H101.148V107.966H104.403V104.714ZM104.403 111.217H101.148V114.469H104.403V111.217ZM101.148 107.966H97.8931V111.217H101.148V107.966ZM97.8931 114.469V117.721H101.148V114.469H97.8931ZM101.148 117.721V120.972H104.403V117.721H101.148ZM97.8931 124.224H101.148V120.972H97.8931V124.224ZM97.8931 114.469V111.217H94.6381V114.469H97.8931ZM94.6381 111.217V107.966H91.3831V111.217H94.6381ZM94.6381 117.721V114.469H91.3831V117.721H94.6381ZM94.6381 120.972H97.8931V117.721H94.6381V120.972ZM91.3831 124.224H94.6381V120.972H91.3831V124.224ZM94.6381 127.476H97.8931V124.224H94.6381V127.476ZM91.3831 130.727H94.6381V127.476H91.3831V130.727ZM88.1281 114.469H84.8731V117.721H88.1281V114.469ZM88.1281 120.972H91.3831V117.721H88.1281V120.972ZM84.8731 124.224H88.1281V120.972H84.8731V124.224ZM88.1281 127.476H91.3831V124.224H88.1281V127.476ZM84.8731 130.727H88.1281V127.476H84.8731V130.727ZM91.3831 114.469V111.217H88.1281V114.469H91.3831ZM81.618 120.972H78.363V124.224H81.618V120.972ZM81.618 127.476H84.8731V124.224H81.618V127.476ZM78.363 127.476V130.727H81.618V127.476H78.363ZM81.618 130.727V133.979H84.8731V130.727H81.618ZM78.363 137.231H81.618V133.979H78.363V137.231ZM84.8731 117.721H81.618V120.972H84.8731V117.721ZM75.108 127.476H71.853V130.727H75.108V127.476ZM75.108 133.979H78.363V130.727H75.108V133.979ZM71.853 137.231H75.108V133.979H71.853V137.231ZM75.108 140.482H78.363V137.231H75.108V140.482ZM71.853 143.734H75.108V140.482H71.853V143.734ZM78.363 127.476V124.224H75.108V127.476H78.363ZM75.108 124.224V120.972H71.853V124.224H75.108ZM71.853 124.224H68.598V127.476H71.853V124.224ZM71.853 130.727H68.598V133.979H71.853V130.727ZM71.853 137.231H68.598V140.482H71.853V137.231ZM107.658 120.972H110.913V117.721H107.658V120.972ZM104.403 124.224H107.658V120.972H104.403V124.224ZM88.1281 133.979H91.3831V130.727H88.1281V133.979ZM84.8731 137.231H88.1281V133.979H84.8731V137.231ZM68.598 146.986H71.853V143.734H68.598V146.986Z" fill="#7E7E7E"/>
<path d="M45.8131 49.4361H52.3231V88.4559H45.8131V85.2043H42.5581V81.9526H36.0481V78.701H32.7931V75.4493H26.2831V72.1977H23.0281V68.946H16.5181V29.9262H23.0281V33.1779H26.2831V36.4295H32.7931V39.6812H36.0481V42.9328H42.5581V46.1845H45.8131V49.4361ZM19.7731 16.9196H10.0081V26.6746H13.2631V20.1713H19.7731V16.9196ZM3.49805 91.7076V114.469H6.75305V91.7076H3.49805ZM6.75305 117.721H10.0081V114.469H6.75305V117.721ZM58.8331 127.476V150.237H62.0881V127.476H58.8331Z" fill="#FEFEFE"/>
<path d="M29.5381 52.6878V55.9394H26.2831V65.6944H23.0281V42.9328H26.2831V52.6878H29.5381ZM32.7931 55.9394H29.5381V59.1911H32.7931V72.1977H36.0481V49.4361H32.7931V55.9394ZM39.3031 78.701H42.5581V62.4427H39.3031V78.701ZM39.3031 55.9394V59.1911H42.5581V55.9394H39.3031Z" fill="#649FE3"/>
<path d="M55.5781 88.4559H52.3231V49.4361H55.5781V88.4559ZM52.3231 91.7076V88.4559H45.8131V91.7076H52.3231ZM45.8131 88.4559V85.2043H42.5581V88.4559H45.8131ZM42.5581 85.2043V81.9526H36.0481V85.2043H42.5581ZM36.0481 81.9526V78.701H32.7931V81.9526H36.0481ZM32.7931 78.701V75.4493H26.2831V78.701H32.7931ZM26.2831 75.4493V72.1977H23.0281V75.4493H26.2831ZM23.0281 68.946H16.5181V72.1977H23.0281V68.946ZM55.5781 13.668V16.9196H58.8331V13.668H55.5781ZM58.8331 16.9196V20.1713H65.3431V16.9196H58.8331ZM65.3431 20.1713V23.4229H68.5982V20.1713H65.3431ZM68.5982 23.4229V26.6746H75.1082V23.4229H68.5982ZM75.1082 26.6746V29.9262H78.3632V26.6746H75.1082ZM78.3632 29.9262V33.1779H81.6182V29.9262H78.3632ZM81.6182 33.1779V75.4493H84.8732V33.1779H81.6182ZM36.0481 3.91302V7.16468H42.5581V3.91302H36.0481ZM42.5581 7.16468V10.4163H49.0681V7.16468H42.5581ZM49.0681 10.4163V13.668H55.5781V10.4163H49.0681ZM62.0881 7.16468H55.5781V10.4163H62.0881V7.16468ZM68.5982 3.91302H62.0881V7.16468H68.5982V3.91302ZM71.8532 10.4163V7.16468H68.5982V10.4163H71.8532ZM78.3632 13.668V10.4163H71.8532V13.668H78.3632ZM81.6182 16.9196V13.668H78.3632V16.9196H81.6182ZM88.1282 20.1713V16.9196H81.6182V20.1713H88.1282ZM94.6382 26.6746V23.4229H91.3832V26.6746H94.6382ZM97.8932 29.9262V26.6746H94.6382V29.9262H97.8932ZM91.3832 23.4229V20.1713H88.1282V23.4229H91.3832ZM101.148 65.6944V29.9262H97.8932V65.6944H101.148ZM94.6382 68.946H97.8932V65.6944H94.6382V68.946ZM117.423 88.4559V91.7076H114.168V94.9593H117.423V117.721H120.678V88.4559H117.423ZM110.913 120.972H117.423V117.721H110.913V120.972ZM107.658 124.224H110.913V120.972H107.658V124.224ZM101.148 127.476H107.658V124.224H101.148V127.476ZM97.8932 130.727H101.148V127.476H97.8932V130.727ZM91.3832 133.979H97.8932V130.727H91.3832V133.979ZM88.1282 137.231H91.3832V133.979H88.1282V137.231ZM81.6182 140.482H88.1282V137.231H81.6182V140.482ZM78.3632 143.734H81.6182V140.482H78.3632V143.734ZM71.8532 146.986H78.3632V143.734H71.8532V146.986ZM68.5982 150.237H71.8532V146.986H68.5982V150.237ZM55.5781 153.489H68.5982V150.237H55.5781V153.489ZM10.0081 75.4493V78.701H13.2631V75.4493H10.0081ZM13.2631 78.701V81.9526H19.7731V78.701H13.2631ZM19.7731 81.9526V85.2043H23.0281V81.9526H19.7731ZM23.0281 85.2043V88.4559H29.5381V85.2043H23.0281ZM29.5381 88.4559V91.7076H32.7931V88.4559H29.5381ZM32.7931 91.7076V94.9593H39.3031V91.7076H32.7931ZM39.3031 94.9593V98.2109H42.5581V94.9593H39.3031ZM42.5581 98.2109V101.463H49.0681V98.2109H42.5581ZM49.0681 104.714H58.8331V101.463H49.0681V104.714ZM58.8331 101.463H65.3431V98.2109H58.8331V101.463ZM65.3431 98.2109H71.8532V94.9593H65.3431V98.2109ZM71.8532 94.9593H78.3632V91.7076H71.8532V94.9593ZM78.3632 91.7076H81.6182V88.4559H78.3632V91.7076ZM81.6182 88.4559H84.8732V81.9526H81.6182V88.4559ZM84.8732 81.9526H88.1282V75.4493H84.8732V81.9526ZM110.913 85.2043V88.4559H117.423V85.2043H110.913ZM107.658 81.9526V85.2043H110.913V81.9526H107.658ZM101.148 78.701V81.9526H107.658V78.701H101.148ZM97.8932 75.4493V78.701H101.148V75.4493H97.8932ZM94.6382 72.1977V68.946H91.3832V72.1977H88.1282V75.4493H97.8932V72.1977H94.6382ZM107.658 98.2109H114.168V94.9593H107.658V98.2109ZM101.148 101.463H107.658V98.2109H101.148V101.463ZM97.8932 104.714H101.148V101.463H97.8932V104.714ZM91.3832 107.966H97.8932V104.714H91.3832V107.966ZM88.1282 111.218H91.3832V107.966H88.1282V111.218ZM81.6182 114.469H88.1282V111.218H81.6182V114.469ZM78.3632 117.721H81.6182V114.469H78.3632V117.721ZM71.8532 120.972H78.3632V117.721H71.8532V120.972ZM68.5982 124.224H71.8532V120.972H68.5982V124.224ZM65.3431 127.476H68.5982V124.224H65.3431V127.476ZM55.5781 137.231V133.979H49.0681V137.231H55.5781ZM45.8131 130.727V133.979H49.0681V130.727H45.8131ZM39.3031 127.476V130.727H45.8131V127.476H39.3031Z" fill="black"/>
<path d="M78.363 33.1779V36.4295H71.853V33.1779H78.363ZM65.343 36.4295V39.6812H71.853V36.4295H65.343ZM58.833 39.6812V42.9328H65.343V39.6812H58.833Z" fill="#C0C0C0"/>
</svg>
