<svg width="13" height="14" viewBox="0 0 13 14" fill="none" xmlns="http://www.w3.org/2000/svg">
<path d="M4.8346 0.839622H5.60407V1.6091H4.8346V0.839622ZM5.60407 0.839622H6.37355V1.6091H5.60407V0.839622ZM6.37355 0.839622H7.14302V1.6091H6.37355V0.839622ZM7.14302 0.839622H7.91249V1.6091H7.14302V0.839622ZM3.29565 1.6091H4.06513V2.37857H3.29565V1.6091ZM4.06513 1.6091H4.8346V2.37857H4.06513V1.6091Z" fill="#CC1242"/>
<path d="M4.83472 1.60909H5.60419V2.37857H4.83472V1.60909ZM5.60419 1.60909H6.37366V2.37857H5.60419V1.60909ZM6.37366 1.60909H7.14314V2.37857H6.37366V1.60909ZM7.14314 1.60909H7.91261V2.37857H7.14314V1.60909Z" fill="#F0745C"/>
<path d="M7.91244 1.60909H8.68191V2.37857H7.91244V1.60909ZM8.68191 1.60909H9.45138V2.37857H8.68191V1.60909ZM2.52612 2.37857H3.2956V3.14804H2.52612V2.37857Z" fill="#CC1242"/>
<path d="M3.29565 2.37856H4.06513V3.14804H3.29565V2.37856ZM4.06513 2.37856H4.8346V3.14804H4.06513V2.37856ZM4.8346 2.37856H5.60407V3.14804H4.8346V2.37856Z" fill="#F0745C"/>
<path d="M5.604 2.37856H6.37348V3.14804H5.604V2.37856ZM6.37348 2.37856H7.14295V3.14804H6.37348V2.37856Z" fill="#CC1242"/>
<path d="M7.14307 2.37856H7.91254V3.14804H7.14307V2.37856ZM7.91254 2.37856H8.68201V3.14804H7.91254V2.37856ZM8.68201 2.37856H9.45149V3.14804H8.68201V2.37856Z" fill="#F0745C"/>
<path d="M9.45157 2.37856H10.221V3.14804H9.45157V2.37856ZM1.75684 3.14804H2.52631V3.91751H1.75684V3.14804Z" fill="#CC1242"/>
<path d="M2.52612 3.14803H3.2956V3.9175H2.52612V3.14803ZM3.2956 3.14803H4.06507V3.9175H3.2956V3.14803ZM4.06507 3.14803H4.83454V3.9175H4.06507V3.14803Z" fill="#F0745C"/>
<path d="M4.83472 3.14803H5.60419V3.9175H4.83472V3.14803ZM5.60419 3.14803H6.37366V3.9175H5.60419V3.14803ZM6.37366 3.14803H7.14314V3.9175H6.37366V3.14803ZM7.14314 3.14803H7.91261V3.9175H7.14314V3.14803Z" fill="#CC1242"/>
<path d="M7.9126 3.14803H8.68207V3.9175H7.9126V3.14803ZM8.68207 3.14803H9.45154V3.9175H8.68207V3.14803ZM9.45154 3.14803H10.221V3.9175H9.45154V3.14803Z" fill="#F0745C"/>
<path d="M10.221 3.14803H10.9905V3.9175H10.221V3.14803ZM0.987305 3.9175H1.75678V4.68697H0.987305V3.9175Z" fill="#CC1242"/>
<path d="M1.75684 3.9175H2.52631V4.68697H1.75684V3.9175ZM2.52631 3.9175H3.29578V4.68697H2.52631V3.9175ZM3.29578 3.9175H4.06526V4.68697H3.29578V3.9175ZM4.06526 3.9175H4.83473V4.68697H4.06526V3.9175Z" fill="#F0745C"/>
<path d="M4.83472 3.9175H5.60419V4.68697H4.83472V3.9175ZM5.60419 3.9175H6.37366V4.68697H5.60419V3.9175ZM6.37366 3.9175H7.14314V4.68697H6.37366V3.9175ZM7.14314 3.9175H7.91261V4.68697H7.14314V3.9175Z" fill="#CC1242"/>
<path d="M7.9126 3.9175H8.68207V4.68697H7.9126V3.9175ZM8.68207 3.9175H9.45154V4.68697H8.68207V3.9175ZM9.45154 3.9175H10.221V4.68697H9.45154V3.9175ZM10.221 3.9175H10.9905V4.68697H10.221V3.9175Z" fill="#F0745C"/>
<path d="M10.9905 3.9175H11.7599V4.68697H10.9905V3.9175ZM0.987305 4.68697H1.75678V5.45644H0.987305V4.68697Z" fill="#CC1242"/>
<path d="M1.75684 4.68699H2.52631V5.45646H1.75684V4.68699ZM2.52631 4.68699H3.29578V5.45646H2.52631V4.68699ZM3.29578 4.68699H4.06526V5.45646H3.29578V4.68699ZM4.06526 4.68699H4.83473V5.45646H4.06526V4.68699ZM4.83473 4.68699H5.6042V5.45646H4.83473V4.68699Z" fill="#F0745C"/>
<path d="M5.604 4.68699H6.37348V5.45646H5.604V4.68699ZM6.37348 4.68699H7.14295V5.45646H6.37348V4.68699Z" fill="#CC1242"/>
<path d="M7.14307 4.68699H7.91254V5.45646H7.14307V4.68699ZM7.91254 4.68699H8.68201V5.45646H7.91254V4.68699ZM8.68201 4.68699H9.45149V5.45646H8.68201V4.68699ZM9.45149 4.68699H10.221V5.45646H9.45149V4.68699ZM10.221 4.68699H10.9904V5.45646H10.221V4.68699Z" fill="#F0745C"/>
<path d="M10.9904 4.68699H11.7599V5.45646H10.9904V4.68699ZM0.217773 5.45646H0.987247V6.22594H0.217773V5.45646Z" fill="#CC1242"/>
<path d="M0.987305 5.45646H1.75678V6.22593H0.987305V5.45646ZM1.75678 5.45646H2.52625V6.22593H1.75678V5.45646ZM2.52625 5.45646H3.29572V6.22593H2.52625V5.45646ZM3.29572 5.45646H4.0652V6.22593H3.29572V5.45646ZM4.0652 5.45646H4.83467V6.22593H4.0652V5.45646ZM4.83467 5.45646H5.60414V6.22593H4.83467V5.45646ZM5.60414 5.45646H6.37362V6.22593H5.60414V5.45646ZM6.37362 5.45646H7.14309V6.22593H6.37362V5.45646ZM7.14309 5.45646H7.91256V6.22593H7.14309V5.45646ZM7.91256 5.45646H8.68204V6.22593H7.91256V5.45646ZM8.68204 5.45646H9.45151V6.22593H8.68204V5.45646ZM9.45151 5.45646H10.221V6.22593H9.45151V5.45646ZM10.221 5.45646H10.9905V6.22593H10.221V5.45646ZM10.9905 5.45646H11.7599V6.22593H10.9905V5.45646Z" fill="#F0745C"/>
<path d="M11.7599 5.45646H12.5293V6.22593H11.7599V5.45646ZM0.217773 6.22593H0.987247V6.99541H0.217773V6.22593Z" fill="#CC1242"/>
<path d="M0.987305 6.22593H1.75678V6.9954H0.987305V6.22593ZM1.75678 6.22593H2.52625V6.9954H1.75678V6.22593ZM2.52625 6.22593H3.29572V6.9954H2.52625V6.22593ZM3.29572 6.22593H4.0652V6.9954H3.29572V6.22593ZM4.0652 6.22593H4.83467V6.9954H4.0652V6.22593Z" fill="#F0745C"/>
<path d="M4.83472 6.22593H5.60419V6.9954H4.83472V6.22593ZM5.60419 6.22593H6.37366V6.9954H5.60419V6.22593ZM6.37366 6.22593H7.14314V6.9954H6.37366V6.22593ZM7.14314 6.22593H7.91261V6.9954H7.14314V6.22593Z" fill="#CC1242"/>
<path d="M7.9126 6.22593H8.68207V6.9954H7.9126V6.22593ZM8.68207 6.22593H9.45154V6.9954H8.68207V6.22593ZM9.45154 6.22593H10.221V6.9954H9.45154V6.22593ZM10.221 6.22593H10.9905V6.9954H10.221V6.22593ZM10.9905 6.22593H11.76V6.9954H10.9905V6.22593Z" fill="#F0745C"/>
<path d="M11.7598 6.22593H12.5292V6.9954H11.7598V6.22593Z" fill="#CC1242"/>
<path d="M0.217773 6.9954H0.987247V7.76487H0.217773V6.9954Z" fill="#094466"/>
<path d="M0.987305 6.9954H1.75678V7.76487H0.987305V6.9954ZM1.75678 6.9954H2.52625V7.76487H1.75678V6.9954ZM2.52625 6.9954H3.29572V7.76487H2.52625V6.9954Z" fill="#F0745C"/>
<path d="M3.29565 6.9954H4.06513V7.76487H3.29565V6.9954ZM4.06513 6.9954H4.8346V7.76487H4.06513V6.9954ZM4.8346 6.9954H5.60407V7.76487H4.8346V6.9954ZM5.60407 6.9954H6.37355V7.76487H5.60407V6.9954ZM6.37355 6.9954H7.14302V7.76487H6.37355V6.9954ZM7.14302 6.9954H7.91249V7.76487H7.14302V6.9954ZM7.91249 6.9954H8.68197V7.76487H7.91249V6.9954ZM8.68197 6.9954H9.45144V7.76487H8.68197V6.9954Z" fill="#CC1242"/>
<path d="M9.45142 6.9954H10.2209V7.76487H9.45142V6.9954ZM10.2209 6.9954H10.9904V7.76487H10.2209V6.9954ZM10.9904 6.9954H11.7598V7.76487H10.9904V6.9954Z" fill="#F0745C"/>
<path d="M11.7598 6.9954H12.5292V7.76487H11.7598V6.9954Z" fill="#094466"/>
<path d="M0.217773 7.76487H0.987247V8.53434H0.217773V7.76487Z" fill="#151C18"/>
<path d="M0.987305 7.76487H1.75678V8.53434H0.987305V7.76487Z" fill="#094466"/>
<path d="M1.75684 7.76487H2.52631V8.53434H1.75684V7.76487Z" fill="#F0745C"/>
<path d="M2.52612 7.76487H3.2956V8.53434H2.52612V7.76487ZM3.2956 7.76487H4.06507V8.53434H3.2956V7.76487ZM4.06507 7.76487H4.83454V8.53434H4.06507V7.76487ZM4.83454 7.76487H5.60402V8.53434H4.83454V7.76487ZM5.60402 7.76487H6.37349V8.53434H5.60402V7.76487ZM6.37349 7.76487H7.14296V8.53434H6.37349V7.76487ZM7.14296 7.76487H7.91244V8.53434H7.14296V7.76487ZM7.91244 7.76487H8.68191V8.53434H7.91244V7.76487ZM8.68191 7.76487H9.45138V8.53434H8.68191V7.76487ZM9.45138 7.76487H10.2209V8.53434H9.45138V7.76487Z" fill="#CC1242"/>
<path d="M10.2209 7.76487H10.9904V8.53434H10.2209V7.76487Z" fill="#F0745C"/>
<path d="M10.9905 7.76487H11.76V8.53434H10.9905V7.76487Z" fill="#094466"/>
<path d="M11.7599 7.76487H12.5294V8.53434H11.7599V7.76487ZM0.987305 8.53434H1.75678V9.30382H0.987305V8.53434Z" fill="#151C18"/>
<path d="M1.75684 8.53436H2.52631V9.30383H1.75684V8.53436Z" fill="#F0745C"/>
<path d="M2.52612 8.53436H3.2956V9.30383H2.52612V8.53436ZM3.2956 8.53436H4.06507V9.30383H3.2956V8.53436ZM4.06507 8.53436H4.83454V9.30383H4.06507V8.53436ZM4.83454 8.53436H5.60402V9.30383H4.83454V8.53436ZM5.60402 8.53436H6.37349V9.30383H5.60402V8.53436ZM6.37349 8.53436H7.14296V9.30383H6.37349V8.53436ZM7.14296 8.53436H7.91244V9.30383H7.14296V8.53436ZM7.91244 8.53436H8.68191V9.30383H7.91244V8.53436ZM8.68191 8.53436H9.45138V9.30383H8.68191V8.53436ZM9.45138 8.53436H10.2209V9.30383H9.45138V8.53436Z" fill="#CC1242"/>
<path d="M10.2209 8.53436H10.9904V9.30383H10.2209V8.53436Z" fill="#F0745C"/>
<path d="M10.9905 8.53436H11.7599V9.30383H10.9905V8.53436ZM0.987305 9.30383H1.75678V10.0733H0.987305V9.30383Z" fill="#151C18"/>
<path d="M1.75684 9.30383H2.52631V10.0733H1.75684V9.30383Z" fill="#094466"/>
<path d="M2.52612 9.30383H3.2956V10.0733H2.52612V9.30383Z" fill="#F0745C"/>
<path d="M3.29565 9.30383H4.06513V10.0733H3.29565V9.30383ZM4.06513 9.30383H4.8346V10.0733H4.06513V9.30383ZM4.8346 9.30383H5.60407V10.0733H4.8346V9.30383ZM5.60407 9.30383H6.37355V10.0733H5.60407V9.30383ZM6.37355 9.30383H7.14302V10.0733H6.37355V9.30383ZM7.14302 9.30383H7.91249V10.0733H7.14302V9.30383ZM7.91249 9.30383H8.68197V10.0733H7.91249V9.30383ZM8.68197 9.30383H9.45144V10.0733H8.68197V9.30383Z" fill="#CC1242"/>
<path d="M9.45142 9.30383H10.2209V10.0733H9.45142V9.30383Z" fill="#F0745C"/>
<path d="M10.2209 9.30383H10.9904V10.0733H10.2209V9.30383Z" fill="#094466"/>
<path d="M10.9905 9.30383H11.76V10.0733H10.9905V9.30383ZM1.75684 10.0733H2.52631V10.8428H1.75684V10.0733Z" fill="#151C18"/>
<path d="M2.52612 10.0733H3.2956V10.8428H2.52612V10.0733Z" fill="#094466"/>
<path d="M3.29565 10.0733H4.06513V10.8428H3.29565V10.0733ZM4.06513 10.0733H4.8346V10.8428H4.06513V10.0733Z" fill="#F0745C"/>
<path d="M4.83472 10.0733H5.60419V10.8428H4.83472V10.0733ZM5.60419 10.0733H6.37366V10.8428H5.60419V10.0733ZM6.37366 10.0733H7.14314V10.8428H6.37366V10.0733ZM7.14314 10.0733H7.91261V10.8428H7.14314V10.0733Z" fill="#CC1242"/>
<path d="M7.9126 10.0733H8.68207V10.8428H7.9126V10.0733ZM8.68207 10.0733H9.45154V10.8428H8.68207V10.0733Z" fill="#F0745C"/>
<path d="M9.45142 10.0733H10.2209V10.8428H9.45142V10.0733Z" fill="#094466"/>
<path d="M10.2209 10.0733H10.9903V10.8428H10.2209V10.0733ZM2.52612 10.8428H3.2956V11.6122H2.52612V10.8428Z" fill="#151C18"/>
<path d="M3.29565 10.8428H4.06513V11.6122H3.29565V10.8428ZM4.06513 10.8428H4.8346V11.6122H4.06513V10.8428Z" fill="#094466"/>
<path d="M4.83472 10.8428H5.60419V11.6122H4.83472V10.8428ZM5.60419 10.8428H6.37366V11.6122H5.60419V10.8428ZM6.37366 10.8428H7.14314V11.6122H6.37366V10.8428ZM7.14314 10.8428H7.91261V11.6122H7.14314V10.8428Z" fill="#F0745C"/>
<path d="M7.9126 10.8428H8.68207V11.6122H7.9126V10.8428ZM8.68207 10.8428H9.45154V11.6122H8.68207V10.8428Z" fill="#094466"/>
<path d="M9.45144 10.8428H10.2209V11.6122H9.45144V10.8428ZM3.29565 11.6122H4.06513V12.3817H3.29565V11.6122ZM4.06513 11.6122H4.8346V12.3817H4.06513V11.6122Z" fill="#151C18"/>
<path d="M4.83472 11.6122H5.60419V12.3817H4.83472V11.6122ZM5.60419 11.6122H6.37366V12.3817H5.60419V11.6122ZM6.37366 11.6122H7.14314V12.3817H6.37366V11.6122ZM7.14314 11.6122H7.91261V12.3817H7.14314V11.6122Z" fill="#094466"/>
<path d="M7.91261 11.6122H8.68208V12.3817H7.91261V11.6122ZM8.68208 11.6122H9.45156V12.3817H8.68208V11.6122ZM4.83472 12.3817H5.60419V13.1512H4.83472V12.3817ZM5.60419 12.3817H6.37366V13.1512H5.60419V12.3817ZM6.37366 12.3817H7.14314V13.1512H6.37366V12.3817ZM7.14314 12.3817H7.91261V13.1512H7.14314V12.3817Z" fill="#151C18"/>
</svg>
